<svg width="120" height="120" viewBox="0 0 120 120" fill="none" xmlns="http://www.w3.org/2000/svg">
<circle cx="60" cy="60" r="60" fill="#141414"/>
<path d="M27.2539 74V44.32H36.2939V74H27.2539ZM49.4208 74.4C47.6874 74.4 46.1141 74.0533 44.7008 73.36C43.3141 72.64 42.2208 71.5333 41.4208 70.04C40.6208 68.52 40.2208 66.5733 40.2208 64.2V52.12H49.2608V62.64C49.2608 64.1867 49.5141 65.2667 50.0208 65.88C50.5274 66.4933 51.2208 66.8 52.1008 66.8C52.6341 66.8 53.1274 66.6667 53.5808 66.4C54.0608 66.1067 54.4474 65.64 54.7408 65C55.0341 64.3333 55.1808 63.4667 55.1808 62.4V52.12H64.2208V74H55.6208V67.68L57.3408 69.4C56.5674 71.1067 55.4608 72.3733 54.0208 73.2C52.6074 74 51.0741 74.4 49.4208 74.4ZM75.7905 70.4L75.9905 59.76L83.5505 52.12H94.2305L84.2305 62.6L79.7105 66.24L75.7905 70.4ZM68.2305 74V44.32H77.2705V74H68.2305ZM84.0305 74L78.0305 66.4L83.5905 59.56L94.9505 74H84.0305Z" fill="#CCFE38"/>
</svg>
