<svg width="67" height="20" viewBox="0 0 67 20" fill="none" xmlns="http://www.w3.org/2000/svg">
<path d="M3.344 19.22C2.52267 19.22 1.83333 18.956 1.276 18.428C0.718667 17.8853 0.44 17.196 0.44 16.36C0.44 15.5093 0.718667 14.8273 1.276 14.314C1.83333 13.8007 2.52267 13.544 3.344 13.544C4.16533 13.544 4.85467 13.8007 5.412 14.314C5.96933 14.8273 6.248 15.5093 6.248 16.36C6.248 17.196 5.96933 17.8853 5.412 18.428C4.85467 18.956 4.16533 19.22 3.344 19.22Z" fill="#CCFE38"/>
<path d="M7.78164 19V2.676H12.7536V19H7.78164ZM19.9734 19.22C19.0201 19.22 18.1548 19.0293 17.3774 18.648C16.6148 18.252 16.0134 17.6433 15.5734 16.822C15.1334 15.986 14.9134 14.9153 14.9134 13.61V6.966H19.8854V12.752C19.8854 13.6027 20.0248 14.1967 20.3034 14.534C20.5821 14.8713 20.9634 15.04 21.4474 15.04C21.7408 15.04 22.0121 14.9667 22.2614 14.82C22.5254 14.6587 22.7381 14.402 22.8994 14.05C23.0608 13.6833 23.1414 13.2067 23.1414 12.62V6.966H28.1134V19H23.3834V15.524L24.3294 16.47C23.9041 17.4087 23.2954 18.1053 22.5034 18.56C21.7261 19 20.8828 19.22 19.9734 19.22ZM34.4768 17.02L34.5868 11.168L38.7448 6.966H44.6188L39.1188 12.73L36.6328 14.732L34.4768 17.02ZM30.3188 19V2.676H35.2908V19H30.3188ZM39.0088 19L35.7088 14.82L38.7668 11.058L45.0148 19H39.0088ZM46.0023 19V6.966H50.9743V19H46.0023ZM48.4883 5.998C47.579 5.998 46.853 5.756 46.3103 5.272C45.7677 4.788 45.4963 4.18667 45.4963 3.468C45.4963 2.74933 45.7677 2.148 46.3103 1.664C46.853 1.18 47.579 0.937999 48.4883 0.937999C49.3977 0.937999 50.1237 1.16533 50.6663 1.62C51.209 2.07467 51.4803 2.66133 51.4803 3.38C51.4803 4.14267 51.209 4.77333 50.6663 5.272C50.1237 5.756 49.3977 5.998 48.4883 5.998ZM61.5381 6.746C62.4621 6.746 63.2981 6.93667 64.0461 7.318C64.7941 7.68467 65.3808 8.264 65.8061 9.056C66.2461 9.848 66.4661 10.8747 66.4661 12.136V19H61.4941V12.994C61.4941 12.246 61.3621 11.718 61.0981 11.41C60.8341 11.0873 60.4748 10.926 60.0201 10.926C59.6828 10.926 59.3675 11.0067 59.0741 11.168C58.7955 11.3147 58.5681 11.564 58.3921 11.916C58.2308 12.268 58.1501 12.7447 58.1501 13.346V19H53.1781V6.966H57.9081V10.486L56.9621 9.474C57.4315 8.56467 58.0621 7.88267 58.8541 7.428C59.6608 6.97333 60.5555 6.746 61.5381 6.746Z" fill="white"/>
</svg>
